<?xml version="1.0" encoding="UTF-8"?>
<svg version="1.1" xmlns="http://www.w3.org/2000/svg" width="2048" height="2048">
<path d="M0 0 C2.49378358 -0.00187139 4.98756687 -0.0041734 7.48134971 -0.00686532 C12.87511668 -0.0116835 18.26887084 -0.01344309 23.66263962 -0.01240921 C31.68439281 -0.01087541 39.70613619 -0.01506559 47.72788747 -0.02028384 C62.89501692 -0.02992537 78.06214298 -0.0327669 93.22927514 -0.03334089 C104.95055728 -0.03380157 116.6718381 -0.03586578 128.39311981 -0.03904152 C131.77496075 -0.03993916 135.1568017 -0.04082897 138.53864264 -0.0417164 C139.79999127 -0.04204797 139.79999127 -0.04204797 141.08682168 -0.04238624 C164.72219908 -0.04853567 188.35757602 -0.0524873 211.99295425 -0.05204296 C212.88302273 -0.05202738 213.77309121 -0.0520118 214.69013145 -0.05199575 C219.20068656 -0.05191265 223.71124167 -0.05181361 228.22179678 -0.05171105 C229.56535188 -0.05168113 229.56535188 -0.05168113 230.93604951 -0.05165061 C232.74737972 -0.05161017 234.55870992 -0.05156837 236.37004013 -0.05152521 C264.52857929 -0.05091296 292.68710638 -0.05841189 320.84564209 -0.07209778 C352.53263915 -0.08749251 384.21962829 -0.09606194 415.90662932 -0.09513456 C419.29224253 -0.09505993 422.67785573 -0.09501122 426.06346893 -0.09498024 C426.89699843 -0.09496859 427.73052792 -0.09495693 428.58931589 -0.09494492 C441.94410846 -0.09491428 455.29889048 -0.10127249 468.65367992 -0.1099125 C482.10121752 -0.11843192 495.54873985 -0.11934565 508.99627867 -0.11280318 C516.26678984 -0.10945573 523.53726622 -0.1092096 530.80777359 -0.11815643 C587.22633095 -0.18430778 587.22633095 -0.18430778 611.03118896 2.13371277 C612.27994096 2.24949501 612.27994096 2.24949501 613.55392027 2.3676163 C617.93346196 2.77511316 622.29421283 3.25565103 626.65618896 3.82121277 C627.95064941 3.987099 629.24510986 4.15298523 630.57879639 4.32389832 C726.63260984 17.06385815 818.62897046 57.03966796 893.03118896 119.13371277 C893.89502197 119.84890076 893.89502197 119.84890076 894.77630615 120.57853699 C902.52599413 126.99617715 909.98727179 133.67733604 917.3324585 140.55265808 C919.11660712 142.21321377 920.91412082 143.85827394 922.71478271 145.50090027 C928.2202407 150.53682196 933.60689459 155.50282078 938.39447021 161.24308777 C940.33753549 163.48758322 942.41626315 165.55067025 944.53118896 167.63371277 C948.57960395 171.64123467 952.34175068 175.79674042 956.03118896 180.13371277 C956.80720459 181.02058777 957.58322021 181.90746277 958.38275146 182.82121277 C966.80660968 192.51596651 974.41836525 202.79787905 982.03118896 213.13371277 C982.6069165 213.90940613 983.18264404 214.68509949 983.77581787 215.48429871 C1036.06011588 285.97622765 1068.00528451 370.35616398 1079.28118896 457.13371277 C1079.43225098 458.2677655 1079.58331299 459.40181824 1079.73895264 460.57023621 C1083.63045693 492.60655691 1083.32548473 524.80263675 1083.29452504 557.0148111 C1083.28800559 564.23559796 1083.29339918 571.45636561 1083.29893303 578.67715156 C1083.30939013 592.81903091 1083.3085817 606.96089204 1083.30277521 621.10277307 C1083.2977192 633.47950263 1083.29644221 645.85622555 1083.2988205 658.23295593 C1083.29904965 659.47040254 1083.29904965 659.47040254 1083.29928344 660.73284808 C1083.29990624 664.0826947 1083.30054305 667.43254131 1083.30120296 670.78238793 C1083.30730386 702.12673097 1083.30180128 733.4710625 1083.29100917 764.81540376 C1083.28151987 792.58687752 1083.28236921 820.35833292 1083.29193115 848.12980652 C1083.30266942 879.42139339 1083.30687097 910.7129701 1083.30070662 942.00455856 C1083.30006531 945.34786224 1083.29943962 948.69116592 1083.2988205 952.0344696 C1083.29866234 952.85751434 1083.29850419 953.68055909 1083.29834124 954.52854457 C1083.29607823 966.88932773 1083.29870441 979.25010349 1083.3037796 991.61088562 C1083.30952918 1005.68325347 1083.30800287 1019.75560045 1083.29721811 1033.82796574 C1083.29190589 1040.99350677 1083.28963224 1048.1590138 1083.29651642 1055.32455444 C1083.37758199 1145.61070709 1071.53909025 1230.66178578 975.03118896 1406.13371277 C974.62078369 1406.67028503 974.21037842 1407.2068573 973.78753662 1407.75968933 C968.57077927 1414.5624507 963.20021552 1421.21018137 957.59368896 1427.69621277 C957.11705811 1428.24833435 956.64042725 1428.80045593 956.14935303 1429.36930847 C946.9639586 1439.8903496 937.34919075 1449.98372812 927.45697021 1459.83830261 C925.7643755 1461.52547235 924.077283 1463.21801472 922.39056396 1464.91105652 C916.77352203 1470.53184435 911.11216818 1476.01003795 905.03118896 1481.13371277 C904.0213019 1482.01042791 903.0121442 1482.88798416 902.00384521 1483.76652527 C893.9503101 1490.66337816 885.62971901 1497.14701064 877.16009521 1503.52384949 C875.1284128 1505.06019282 873.10954904 1506.61185033 871.09368896 1508.16886902 C851.41235986 1523.28468557 830.08160717 1536.02717869 808.31536865 1547.88517761 C806.83888764 1548.69222378 805.36535002 1549.50468888 803.89544678 1550.32365417 C744.92800725 1583.16991221 676.83721283 1601.79784556 609.84368896 1607.94621277 C608.63092285 1608.05803894 607.41815674 1608.16986511 606.16864014 1608.28507996 C585.18023386 1610.02819668 564.10918323 1610.28326329 543.06048584 1610.26069641 C540.66419196 1610.26185231 538.26789826 1610.26344295 535.87160492 1610.26542366 C530.04455793 1610.26912289 524.21752476 1610.26827725 518.39047763 1610.26537289 C511.39400701 1610.26215008 504.39754144 1610.26481369 497.40107107 1610.2675848 C483.69743634 1610.27282138 469.99380631 1610.27240587 456.29017115 1610.26950589 C444.29718635 1610.26698068 432.30420327 1610.2663381 420.31121826 1610.26752853 C419.11343727 1610.26764311 419.11343727 1610.26764311 417.89145869 1610.26776 C414.64921569 1610.26807139 411.40697269 1610.2683898 408.16472968 1610.26871977 C377.80999945 1610.27177213 347.4552722 1610.26901587 317.10054243 1610.26362287 C290.18940218 1610.25887801 263.27826667 1610.25930267 236.36712646 1610.26408386 C206.06447528 1610.26944974 175.76182671 1610.27155557 145.45917511 1610.2684716 C142.22316996 1610.26815093 138.98716482 1610.26783808 135.75115967 1610.26752853 C134.55616176 1610.26740992 134.55616176 1610.26740992 133.33702248 1610.26728891 C121.35771723 1610.26615607 109.37841388 1610.26747302 97.39910889 1610.27000809 C83.76487149 1610.27287916 70.13063948 1610.27212749 56.49640274 1610.26672734 C49.55038413 1610.26406624 42.60437423 1610.26291441 35.65835571 1610.2663765 C29.28270216 1610.2693869 22.90706691 1610.26766886 16.53141499 1610.26239894 C14.24237746 1610.26129478 11.95333835 1610.26182059 9.66430187 1610.26427473 C-11.43658196 1610.28513716 -32.57962044 1609.93683977 -53.59381104 1607.88371277 C-54.24692261 1607.82057892 -54.90003418 1607.75744507 -55.57293701 1607.69239807 C-133.93059291 1600.02443839 -211.12414816 1574.9838061 -277.96881104 1533.13371277 C-278.72645752 1532.66127136 -279.484104 1532.18882996 -280.26470947 1531.70207214 C-300.38077467 1519.09094841 -319.94627003 1505.24288293 -337.93365479 1489.73136902 C-340.86170752 1487.22537794 -343.84049259 1484.79862596 -346.84381104 1482.38371277 C-350.51521793 1479.397706 -353.92086274 1476.31565791 -357.19708252 1472.90446472 C-358.91592908 1471.18656557 -360.69521925 1469.61656332 -362.54693604 1468.04386902 C-367.59969967 1463.65147231 -372.30970637 1458.93916606 -377.03131104 1454.19621277 C-377.89047119 1453.3409198 -378.74963135 1452.48562683 -379.63482666 1451.60441589 C-384.08541424 1447.14702833 -388.39196584 1442.62618085 -392.49591064 1437.84733582 C-394.35287203 1435.68688298 -396.28600697 1433.6013156 -398.21881104 1431.50871277 C-403.29989799 1425.87645706 -407.92823146 1419.93121341 -412.565979 1413.9349823 C-413.92762881 1412.18659172 -415.30571161 1410.45287973 -416.69146729 1408.72355652 C-431.68786857 1389.97130465 -444.92633161 1369.89515765 -456.96881104 1349.13371277 C-457.34296143 1348.48982605 -457.71711182 1347.84593933 -458.1026001 1347.18254089 C-501.43583125 1272.09114286 -523.81224356 1187.74182021 -527.09579468 1069.12541199 C-527.0969508 1066.73721735 -527.0985416 1064.34902288 -527.10052192 1061.96082878 C-527.10421856 1056.1576636 -527.10337709 1050.35451231 -527.10047116 1044.55134698 C-527.09724629 1037.58260633 -527.09991288 1030.61387074 -527.10268307 1023.64513034 C-527.10791787 1009.99607271 -527.10750485 996.34701981 -527.10460416 982.69796175 C-527.10207833 970.75269645 -527.10143666 958.80743287 -527.1026268 946.86216736 C-527.10270319 946.06663326 -527.10277957 945.27109916 -527.10285827 944.45145796 C-527.10316966 941.22129141 -527.10348807 937.99112486 -527.10381803 934.76095831 C-527.10686997 904.5230923 -527.10411482 874.28522927 -527.09872114 844.04736373 C-527.09397632 817.24346285 -527.09440098 790.43956673 -527.09918213 763.63566589 C-527.10454873 733.44946024 -527.10665344 703.26325722 -527.10356987 673.07705116 C-527.1032492 669.85312017 -527.10293635 666.62918917 -527.1026268 663.40525818 C-527.10254772 662.61157313 -527.10246865 661.81788809 -527.10238717 661.00015198 C-527.10125463 649.06890247 -527.10257072 637.13765488 -527.10510635 625.20640564 C-527.10797825 611.62601984 -527.10722404 598.04563944 -527.10182561 584.46525431 C-527.09916561 577.54745857 -527.09801067 570.62967156 -527.10147476 563.71187592 C-527.10448742 557.36088222 -527.10276355 551.00990687 -527.09749721 544.6589148 C-527.09639398 542.37998353 -527.09691667 540.10105065 -527.099373 537.82212043 C-527.12079001 516.27326192 -526.76729528 494.66546133 -524.78131104 473.19621277 C-524.72045319 472.53135864 -524.65959534 471.86650452 -524.59689331 471.1815033 C-516.37052669 383.05894598 -484.72410984 295.07184717 -432.96881104 223.13371277 C-432.4328833 222.38670105 -431.89695557 221.63968933 -431.3447876 220.87004089 C-423.25823368 209.64204761 -414.81944927 198.76764583 -405.96881104 188.13371277 C-405.04692185 187.01523487 -404.12504632 185.89674573 -403.20318604 184.77824402 C-392.37578808 171.7241166 -380.5603655 159.63532705 -368.59381104 147.63371277 C-368.07775299 147.11497589 -367.56169495 146.59623901 -367.02999878 146.06178284 C-361.19120407 140.19999755 -355.29327938 134.47664618 -348.96881104 129.13371277 C-347.92432975 128.23291506 -346.88004749 127.33188652 -345.83599854 126.43058777 C-338.03576397 119.79122362 -330.10972998 113.35126116 -321.96881104 107.13371277 C-321.27577881 106.60406921 -320.58274658 106.07442566 -319.86871338 105.5287323 C-253.70263137 55.24720781 -174.4571196 20.15840908 -42.96881104 1.13371277 C-41.79407801 1.05149512 -40.61934498 0.96927748 -39.40901399 0.88456839 C-26.27136533 0.02908579 -13.16115785 -0.00943418 0 0 Z M-281.28131104 302.19621277 C-319.98814281 341.3692401 -340.95160884 395.42314809 -341.34381104 450.19621277 C-341.11505137 478.88786329 -335.23439776 506.77537066 -323.96881104 533.13371277 C-323.65186279 533.88056335 -323.33491455 534.62741394 -323.00836182 535.39689636 C-313.11290935 558.3631694 -298.71224583 578.77970527 -281.34918213 596.70646667 C-280.05018746 598.04957295 -278.76863712 599.40948819 -277.48834229 600.77043152 C-271.39115225 607.10633698 -264.76172569 612.52291619 -257.74810791 617.7943573 C-256.6036983 618.65580504 -255.46394603 619.52349383 -254.33013916 620.39884949 C-237.96427188 633.02380402 -219.39209306 642.23271645 -199.96881104 649.13371277 C-199.1844165 649.41440613 -198.40002197 649.69509949 -197.59185791 649.98429871 C-145.85196902 668.18113618 -87.47877772 664.13739006 -38.13433838 640.51554871 C-19.81124873 631.45084896 -3.42342658 620.36243013 11.54681396 606.43058777 C13.68461169 604.45413327 15.86517296 602.56816621 18.09368896 600.69621277 C53.3790279 569.86645634 73.10313982 522.49893846 80.03118896 477.13371277 C80.19022705 476.12776062 80.19022705 476.12776062 80.35247803 475.10148621 C81.4579086 466.92763934 81.27515847 458.61707077 81.28118896 450.38371277 C81.28186371 449.55702087 81.28253845 448.73032898 81.28323364 447.87858582 C81.26662942 435.06322937 80.67179586 422.71038281 78.03118896 410.13371277 C77.8648999 409.29598328 77.69861084 408.45825378 77.52728271 407.59513855 C69.37303457 367.17875862 49.59317111 330.69569491 20.48040771 301.58293152 C18.94767643 300.05020023 17.43483981 298.49700915 15.95306396 296.91496277 C4.12230459 284.48840976 -10.171895 274.69902358 -24.96881104 266.13371277 C-25.63316162 265.74731628 -26.29751221 265.3609198 -26.98199463 264.96281433 C-107.98685008 218.4683267 -209.51704578 235.21397167 -281.28131104 302.19621277 Z M495.03118896 764.13371277 C493.95369385 764.3106366 492.87619873 764.48756042 491.76605225 764.66984558 C476.59859217 767.22534082 461.75752336 770.70559158 447.03118896 775.13371277 C446.2044165 775.37782898 445.37764404 775.62194519 444.52581787 775.87345886 C398.42182465 789.67100428 355.8251489 814.67217722 320.35150146 847.03215027 C318.33721165 848.85654071 316.28970282 850.62465079 314.21868896 852.38371277 C310.48979989 855.63512214 306.97378433 859.082592 303.46868896 862.57121277 C302.93848145 863.096828 302.40827393 863.62244324 301.86199951 864.16398621 C297.7206085 868.32132773 293.84904819 872.67909701 290.03118896 877.13371277 C289.21968384 878.07718567 289.21968384 878.07718567 288.39178467 879.03971863 C273.22225264 896.80594055 260.51411717 915.80991129 249.03118896 936.13371277 C248.61530518 936.86090515 248.19942139 937.58809753 247.77093506 938.33732605 C223.04628665 981.83074819 208.06505849 1034.87280318 207.82806396 1084.97746277 C207.82104965 1085.97672287 207.81403534 1086.97598297 207.80680847 1088.00552368 C207.78939773 1091.21496643 207.7829555 1094.42422451 207.78118896 1097.63371277 C207.78051422 1098.73152069 207.77983948 1099.82932861 207.77914429 1100.96040344 C207.79534485 1117.548421 208.27967031 1133.74003041 211.03118896 1150.13371277 C211.20279541 1151.19380554 211.37440186 1152.25389832 211.5512085 1153.34611511 C222.41538287 1218.94864078 252.26319648 1278.77332333 296.91400146 1327.79386902 C298.32134421 1329.34921645 299.71222583 1330.91962414 301.08587646 1332.50480652 C304.85264654 1336.85051596 308.71686668 1340.75039007 313.10931396 1344.46183777 C314.9557984 1346.06812911 316.64651919 1347.74688891 318.34368896 1349.50871277 C322.90517016 1354.12121724 327.93907251 1358.12735097 333.03118896 1362.13371277 C333.9801001 1362.88128845 333.9801001 1362.88128845 334.94818115 1363.64396667 C350.56218632 1375.88973327 366.72397581 1386.43743699 384.03118896 1396.13371277 C384.71874268 1396.52413757 385.40629639 1396.91456238 386.11468506 1397.31681824 C461.09842478 1439.71012706 553.39725491 1447.46259642 635.83685303 1425.36637878 C698.93539976 1407.6852558 758.43158729 1371.31833669 801.03118896 1321.13371277 C801.82911865 1320.22492371 802.62704834 1319.31613464 803.44915771 1318.37980652 C861.04106877 1252.33783046 889.18113143 1162.66340319 883.51556396 1075.67106628 C878.69623456 1011.93041473 856.73761785 949.27330115 818.03118896 898.13371277 C817.606604 897.57168152 817.18201904 897.00965027 816.74456787 896.43058777 C813.58111693 892.27043311 810.33353291 888.18428796 807.03118896 884.13371277 C806.57502197 883.57168152 806.11885498 883.00965027 805.64886475 882.43058777 C798.39153018 873.57039072 790.47607847 865.37331936 782.40618896 857.25871277 C781.92508667 856.77234344 781.44398438 856.28597412 780.94830322 855.78486633 C774.32357713 849.10408226 767.40081654 842.98427695 760.03118896 837.13371277 C758.78784323 836.109348 757.54662746 835.08238672 756.30853271 834.05168152 C741.91226167 822.21907202 726.29908476 812.19247245 710.03118896 803.13371277 C708.76976074 802.43012634 708.76976074 802.43012634 707.48284912 801.71232605 C662.80969094 777.04571604 610.73314019 761.17921684 559.40618896 760.93058777 C558.42917023 760.92357346 557.45215149 760.91655914 556.44552612 760.90933228 C553.30736627 760.89192346 550.16939535 760.8854792 547.03118896 760.88371277 C545.9570575 760.88303802 544.88292603 760.88236328 543.77624512 760.88166809 C527.33404082 760.89807258 511.28137445 761.40909921 495.03118896 764.13371277 Z " fill="#00477F" transform="translate(951.9688110351563,405.8662872314453)"/>
<path d="M0 0 C32.78726768 28.09071312 54.46448104 67.84009983 59.03125 110.9609375 C62.4552824 158.96323781 49.87001218 204.38326774 18.1640625 241.046875 C-11.08525397 274.09347115 -52.04471353 296.66617118 -96.67578125 299.46875 C-98.16658203 299.51515625 -98.16658203 299.51515625 -99.6875 299.5625 C-100.38149902 299.58828125 -101.07549805 299.6140625 -101.79052734 299.640625 C-147.42773068 301.14030718 -190.73976496 286.73828411 -224.4453125 255.6171875 C-226.37856313 253.84560243 -228.35039334 252.16467659 -230.375 250.5 C-253.30995278 230.87194739 -268.59338833 199.29252979 -275.6875 170.5625 C-275.89632813 169.7698877 -276.10515625 168.97727539 -276.3203125 168.16064453 C-282.73289955 143.154599 -282.19900461 113.46887139 -275.6875 88.5625 C-275.50558105 87.81887207 -275.32366211 87.07524414 -275.13623047 86.30908203 C-272.29837822 74.82326179 -267.82596923 64.19482287 -262.6875 53.5625 C-262.37441895 52.90507812 -262.06133789 52.24765625 -261.73876953 51.5703125 C-253.68610129 34.85964045 -241.92268536 20.46680573 -228.6875 7.5625 C-228.13707031 6.95535156 -227.58664063 6.34820312 -227.01953125 5.72265625 C-168.18147453 -57.21244117 -62.88541559 -52.54070901 0 0 Z " fill="#00477F" transform="translate(279.6875,78.4375)"/>
</svg>
