<?xml version="1.0" encoding="UTF-8"?>
<svg version="1.1" xmlns="http://www.w3.org/2000/svg" width="225" height="225">
<path d="M0 0 C74.25 0 148.5 0 225 0 C225 74.25 225 148.5 225 225 C150.75 225 76.5 225 0 225 C0 150.75 0 76.5 0 0 Z " fill="#84E92D" transform="translate(0,0)"/>
<path d="M0 0 C74.25 0 148.5 0 225 0 C225 74.25 225 148.5 225 225 C150.75 225 76.5 225 0 225 C0 150.75 0 76.5 0 0 Z M41 40 C40.29230469 40.65742187 39.58460937 41.31484375 38.85546875 41.9921875 C22.03729059 58.00643745 11.3697746 82.34384095 10.69921875 105.48828125 C10.67976171 107.76294097 10.67625256 110.03778487 10.6875 112.3125 C10.69313965 113.50657471 10.6987793 114.70064941 10.70458984 115.9309082 C10.82083937 124.36245189 11.37510715 131.93640871 14 140 C14.19335938 140.61278809 14.38671875 141.22557617 14.5859375 141.85693359 C19.09980782 155.88963692 25.59066057 169.25599618 35.95703125 179.88671875 C38 182 38 182 39.875 184.44140625 C53.7656535 201.16636589 77.92324625 211.25329539 99 214 C103.44170339 214.28628698 107.86248259 214.33450334 112.3125 214.3125 C114.10361206 214.30404053 114.10361206 214.30404053 115.9309082 214.29541016 C124.3610904 214.1791794 131.93838254 213.62771049 140 211 C140.93513428 210.70198486 140.93513428 210.70198486 141.88916016 210.39794922 C168.797539 201.65125193 190.43596675 183.75202594 203.70703125 158.7890625 C214.62377563 136.40282718 218.62823901 108.93969949 211.3203125 84.7734375 C205.46501946 68.03907929 197.4538938 53.78867589 185 41 C184.34257812 40.29230469 183.68515625 39.58460937 183.0078125 38.85546875 C166.91125216 21.95084815 142.62422464 11.45462739 119.3984375 10.6640625 C88.66374092 10.26696779 63.38032679 18.20554564 41 40 Z " fill="#173647" transform="translate(0,0)"/>
<path d="M0 0 C0.33 0 0.66 0 1 0 C1 33.99 1 67.98 1 103 C-33.98 103 -68.96 103 -105 103 C-105 102.67 -105 102.34 -105 102 C-103.61554688 101.88785156 -103.61554688 101.88785156 -102.203125 101.7734375 C-71.10005357 98.63854295 -43.63597075 84.50140796 -23.64404297 60.36279297 C-9.7745919 42.65374553 -2.88786919 22.02293739 0 0 Z " fill="#FCFDFD" transform="translate(224,122)"/>
<path d="M0 0 C34.32 0 68.64 0 104 0 C104 33.99 104 67.98 104 103 C103.67 103 103.34 103 103 103 C102.82984375 101.93523437 102.6596875 100.87046875 102.484375 99.7734375 C98.15070418 73.43241505 88.58688571 52.28042622 70 33 C69.40445313 32.34128906 68.80890625 31.68257812 68.1953125 31.00390625 C50.71401831 12.17455206 24.61003578 4.25837933 0 1 C0 0.67 0 0.34 0 0 Z " fill="#FDFDFD" transform="translate(121,0)"/>
<path d="M0 0 C0.33 0 0.66 0 1 0 C1.21914063 1.24652344 1.43828125 2.49304688 1.6640625 3.77734375 C5.82231801 26.50285035 13.12506414 46.72358506 29 64 C29.44714355 64.48952148 29.89428711 64.97904297 30.35498047 65.48339844 C49.86347059 86.60587624 74.83488628 97.30670684 103 101 C103 101.33 103 101.66 103 102 C69.01 102 35.02 102 0 102 C0 68.34 0 34.68 0 0 Z " fill="#FDFDFD" transform="translate(0,123)"/>
<path d="M0 0 C33.99 0 67.98 0 103 0 C103 0.33 103 0.66 103 1 C101.27330078 1.20302734 101.27330078 1.20302734 99.51171875 1.41015625 C76.48880927 4.40433118 55.21991529 13.17698049 38 29 C37.51047852 29.44714355 37.02095703 29.89428711 36.51660156 30.35498047 C15.39412376 49.86347059 4.69329316 74.83488628 1 103 C0.67 103 0.34 103 0 103 C0 69.01 0 35.02 0 0 Z " fill="#FDFDFD" transform="translate(0,0)"/>
<path d="M0 0 C0 4.29 0 8.58 0 13 C-3.85742188 13.29296875 -3.85742188 13.29296875 -7.71484375 13.5859375 C-8.46894531 13.72257812 -9.22304687 13.85921875 -10 14 C-11.35000407 16.70000814 -11.19069665 19.25120653 -11.28955078 22.22143555 C-12.14027399 47.39555066 -12.14027399 47.39555066 -20.57421875 55.7421875 C-21.04472656 56.15726563 -21.51523437 56.57234375 -22 57 C-21.60167969 57.40089844 -21.20335938 57.80179688 -20.79296875 58.21484375 C-14.27349688 65.21018948 -12.05926642 73.55967112 -11.71875 83.01171875 C-11.68136719 83.93404297 -11.64398438 84.85636719 -11.60546875 85.80664062 C-11.5347278 87.73891665 -11.46442045 89.6712086 -11.39453125 91.60351562 C-11.35714844 92.52197266 -11.31976563 93.44042969 -11.28125 94.38671875 C-11.25095703 95.22420654 -11.22066406 96.06169434 -11.18945312 96.92456055 C-11.12145884 99.06046035 -11.12145884 99.06046035 -10 101 C-7.64400765 101.46751788 -7.64400765 101.46751788 -4.9375 101.625 C-4.01839844 101.69976562 -3.09929687 101.77453125 -2.15234375 101.8515625 C-1.08693359 101.92503906 -1.08693359 101.92503906 0 102 C0.02686553 103.97909398 0.04633375 105.95828971 0.0625 107.9375 C0.07410156 109.03964844 0.08570313 110.14179688 0.09765625 111.27734375 C0 114 0 114 -1 115 C-8.03142022 115.78751906 -13.66221791 115.64896743 -19.44921875 111.34765625 C-24.46331528 106.99031796 -25.70597807 101.69078304 -26.22216797 95.21118164 C-26.39060712 91.06006981 -26.47971596 86.90934436 -26.56640625 82.75585938 C-26.7287946 77.14640099 -27.13344755 72.30612692 -29 67 C-32.3 66.34 -35.6 65.68 -39 65 C-39 60.05 -39 55.1 -39 50 C-36.75390625 49.73958333 -34.5078125 49.47916667 -32.26171875 49.21875 C-29.30549541 47.62575918 -28.57363291 45.73725834 -27.5612793 42.60791016 C-26.12358995 35.92787639 -26.18117314 28.98344389 -25.91601562 22.17773438 C-25.55446063 15.35201438 -25.20467328 10.50556667 -21 5 C-14.05606363 -0.49728296 -8.58120705 -0.10215723 0 0 Z " fill="#183846" transform="translate(83,55)"/>
<path d="M0 0 C13.80511403 -0.62750518 13.80511403 -0.62750518 20 4 C24.29731374 8.5176888 25.10194037 12.03786874 25.4296875 18.13671875 C25.50316406 19.35423828 25.57664063 20.57175781 25.65234375 21.82617188 C25.79963336 24.38048379 25.94036399 26.9351832 26.07421875 29.49023438 C26.64508949 39.10575666 26.64508949 39.10575666 30 48 C32.1946669 49.36250602 32.1946669 49.36250602 34.6875 49.5 C36.110625 49.665 37.53375 49.83 39 50 C39 54.62 39 59.24 39 64 C31.25 67 31.25 67 29 67 C26.58943719 72.70564664 26.63267223 78.221284 26.5 84.3125 C26.07251032 103.71298762 26.07251032 103.71298762 20 111 C13.45095585 115.63225074 7.79723908 115.08384128 0 115 C0 111.04 0 107.08 0 103 C5.445 102.01 5.445 102.01 11 101 C11.04487549 100.19892822 11.08975098 99.39785645 11.13598633 98.57250977 C11.3488322 94.90164745 11.58051793 91.2322007 11.8125 87.5625 C11.91788086 85.67241211 11.91788086 85.67241211 12.02539062 83.74414062 C13.16903896 66.2234482 13.16903896 66.2234482 19.1875 59.9375 C19.71730469 59.36902344 20.24710938 58.80054688 20.79296875 58.21484375 C21.19128906 57.81394531 21.58960938 57.41304687 22 57 C21.236875 56.29875 20.47375 55.5975 19.6875 54.875 C14.66442719 49.50148025 13.49125478 44.44358457 12.875 37.375 C12.79644775 36.58609375 12.71789551 35.7971875 12.63696289 34.984375 C12.08998477 29.39279018 11.62756451 23.79278466 11.24609375 18.1875 C11.12241171 15.95780852 11.12241171 15.95780852 10 14 C7.64400765 13.53248212 7.64400765 13.53248212 4.9375 13.375 C3.308125 13.25125 1.67875 13.1275 0 13 C0 8.71 0 4.42 0 0 Z " fill="#173746" transform="translate(142,55)"/>
<path d="M0 0 C1.91015625 0.4453125 1.91015625 0.4453125 4.47265625 2.5078125 C6.3464113 6.33679022 6.03978326 8.37865526 4.91015625 12.4453125 C3.84765625 14.3828125 3.84765625 14.3828125 1.91015625 15.4453125 C-4.88229658 16.20002948 -4.88229658 16.20002948 -8.58984375 13.8828125 C-10.67377193 10.49642921 -10.64786472 8.35145932 -10.08984375 4.4453125 C-7.53315462 0.29069266 -4.61630624 -0.25885829 0 0 Z " fill="#163546" transform="translate(87.08984375,104.5546875)"/>
<path d="M0 0 C2.5 1.625 2.5 1.625 4 4 C4.63656938 7.73984509 4.25584708 9.50962644 2.5 12.875 C-0.52710708 15.44804102 -2.20460187 15.74916772 -6.08984375 15.48046875 C-8 15 -8 15 -10.5625 12.9375 C-12.43625505 9.10852228 -12.12962701 7.06665724 -11 3 C-8.71931555 -1.15889517 -4.22419138 -0.75644473 0 0 Z " fill="#163546" transform="translate(144,105)"/>
<path d="M0 0 C2.4375 1.5625 2.4375 1.5625 4 4 C4.56288002 7.94016013 4.60396028 10.05782196 2.4375 13.4375 C-0.94217804 15.60396028 -3.05983987 15.56288002 -7 15 C-9.4375 13.4375 -9.4375 13.4375 -11 11 C-11.56288002 7.05983987 -11.60396028 4.94217804 -9.4375 1.5625 C-6.05782196 -0.60396028 -3.94016013 -0.56288002 0 0 Z " fill="#153446" transform="translate(116,105)"/>
</svg>
